# xmcd
#
# Track frame offsets: 
#        150
#        10572
#        21511
#        33656
#        46306
#        58049
#        68634
#        80373
#        92093
#        104939
#        118751
#        131592
#
# Disc length: 1898 seconds
#
# Revision: 2
# Processed by: cddbd v1.5.2PL0 Copyright (c) Steve Scherf et al.
# Submitted via: ExactAudioCopyFreeDBPlugin 1.0
#
DISCID=a207680c
DTITLE=Howard Tate - Reaction
DYEAR=1969
DGENRE=Rhythm and Blues
TTITLE0=Question
TTITLE1=Have You Ever Had the Blues
TTITLE2=Plenty of Love
TTITLE3=That's What Happens
TTITLE4=Little Volcano
TTITLE5=It's Too Late
TTITLE6=Hold Me Tight
TTITLE7=Come into My Heart
TTITLE8=What'll I Do
TTITLE9=Chain Gang
TTITLE10=My Soul's Got a Hole in It
TTITLE11=These Are the Things That Make Me Know You're Gone
EXTD=Produced By Johnny Nash and Lloyd Price\n\nArthur Jenkins - piano, a
EXTD=rranger\nRichard Tee - piano\nEric Gale - guitar\nBernard Purdie - d
EXTD=rums\nP. Martinez - bass\nJerry Jemmott - bass\nJerry Thomas - trump
EXTD=et, arranger\nPrince D. - saxophone\nS. Hurt - trombone\nSleep - bar
EXTD=itone sax\nJohny Nash background singers\n
EXTT0=
EXTT1=
EXTT2=
EXTT3=
EXTT4=
EXTT5=
EXTT6=
EXTT7=
EXTT8=
EXTT9=
EXTT10=
EXTT11=
PLAYORDER=
